<svg width="398" height="314" viewBox="0 0 398 314" fill="none" xmlns="http://www.w3.org/2000/svg">
<path d="M3.59404 259.764C3.59404 269.764 6.26071 281.931 7.59405 286.764H373.594C384.794 261.964 376.261 223.431 370.594 207.264C380.594 182.464 379.761 167.931 378.094 163.764C412.494 86.9644 392.427 35.431 378.094 19.2643C363.694 3.66434 315.427 54.7643 293.094 82.2643C286.694 90.2643 269.761 102.264 262.094 107.264C244.094 117.664 224.927 113.598 217.594 110.264C187.594 99.0643 152.427 105.598 138.594 110.264C129.394 115.464 94.7607 69.7643 78.5941 46.2643C50.5941 1.46432 24.594 -1.73568 15.094 2.26432C-8.90596 47.0643 3.09404 118.931 12.094 149.264C4.89404 169.264 9.09404 190.598 12.094 198.764C5.59404 217.764 3.59404 247.264 3.59404 259.764Z" fill="black" stroke="black"/>
<path d="M126.594 220.764C128.594 217.964 129.427 213.598 129.594 211.764C130.394 204.564 128.594 195.098 127.594 191.264C117.594 175.264 102.094 172.598 95.594 173.264C68.394 176.864 59.9273 197.431 59.094 207.264C60.294 225.264 84.594 230.098 96.594 230.264C109.594 230.764 124.094 224.264 126.594 220.764Z" fill="white" stroke="black"/>
<path d="M256.094 241.264C220.094 241.264 210.427 226.598 210.094 219.264C211.694 192.464 230.094 183.431 239.094 182.264C260.694 179.464 277.094 198.431 282.594 208.264C292.194 231.864 268.927 240.098 256.094 241.264Z" fill="#D9D9D9" stroke="black"/>
<path d="M239.094 221.264C235.494 200.864 245.261 196.431 250.594 196.764C262.994 195.964 268.761 207.431 270.094 213.264C274.094 229.664 264.094 235.098 258.594 235.764C247.394 236.564 240.927 226.431 239.094 221.264Z" fill="black" stroke="black"/>
<path d="M88.594 208.764C89.794 193.564 99.094 189.098 103.594 188.764C116.394 188.764 119.927 200.098 120.094 205.764C120.494 220.164 109.261 224.764 103.594 225.264C93.594 225.264 89.4273 214.264 88.594 208.764Z" fill="black" stroke="black"/>
<path d="M144.094 233.764C148.094 234.564 154.427 236.764 157.094 237.764H162.094C166.894 236.164 171.094 236.098 172.594 236.264C177.394 235.864 182.261 244.098 184.094 248.264C186.894 254.664 180.261 257.264 176.594 257.764C172.994 258.564 170.094 261.098 169.094 262.264C166.694 276.664 158.094 278.931 154.094 278.264C148.094 278.664 143.594 271.764 142.094 268.264C140.494 258.664 134.094 255.931 131.094 255.764C127.094 253.364 127.094 248.431 127.594 246.264C130.594 237.264 139.094 232.764 144.094 233.764Z" fill="white" stroke="black"/>
<path d="M114.275 286.837C89.8825 272.044 38.6815 243.807 29.017 249.21" stroke="white" stroke-linecap="round"/>
<path d="M211 286.709C239.461 269.758 299.202 237.404 310.479 243.595" stroke="white" stroke-linecap="round"/>
<path d="M103 287C82.6481 277.326 40.1589 259.235 33.0171 264.258" stroke="white" stroke-linecap="round"/>
<path d="M226.5 286.526C250.188 275.508 299.644 254.907 307.967 260.651" stroke="white" stroke-linecap="round"/>
<path d="M122.98 286.404C123.204 286.567 123.516 286.518 123.679 286.295C123.842 286.071 123.793 285.759 123.57 285.596L122.98 286.404ZM123.57 285.596C112.854 277.783 96.1872 266.325 81.0076 257.342C73.4195 252.851 66.1891 248.971 60.2531 246.474C57.2861 245.226 54.626 244.317 52.3966 243.853C50.1878 243.394 48.3136 243.352 46.9794 243.942L47.384 244.857C48.4198 244.398 50.0317 244.383 52.193 244.832C54.3335 245.277 56.9272 246.16 59.8654 247.396C65.7396 249.866 72.9248 253.72 80.4983 258.202C95.6416 267.164 112.281 278.603 122.98 286.404L123.57 285.596Z" fill="white"/>
<path d="M200.292 286.952C200.067 287.115 199.754 287.065 199.592 286.843C199.431 286.62 199.483 286.308 199.708 286.146L200.292 286.952ZM199.708 286.146C211.821 277.419 230.66 264.62 247.815 254.581C256.391 249.563 264.56 245.227 271.264 242.436C274.614 241.04 277.616 240.024 280.128 239.505C282.62 238.989 284.719 238.944 286.204 239.59L285.796 240.505C284.607 239.987 282.769 239.976 280.325 240.481C277.901 240.982 274.966 241.972 271.644 243.356C265.002 246.121 256.879 250.431 248.318 255.44C231.2 265.457 212.388 278.237 200.292 286.952L199.708 286.146Z" fill="white"/>
</svg>
