<svg width="427" height="361" viewBox="0 0 427 361" fill="none" xmlns="http://www.w3.org/2000/svg">
<path d="M21.2292 296.168C21.1392 296.168 22.5492 290.018 22.6792 289.638C24.2192 285.268 29.7792 277.718 34.9692 277.858C35.8321 277.904 36.6756 278.131 37.4445 278.526C38.2134 278.92 38.8904 279.472 39.4313 280.146C39.9721 280.82 40.3646 281.6 40.5831 282.437C40.8016 283.273 40.8412 284.145 40.6992 284.998C40.2292 288.628 36.8792 291.658 33.8692 293.378C30.3292 295.398 21.2392 296.168 21.2292 296.168Z" fill="#263238"/>
<path d="M21.8092 271.148C21.7192 271.148 24.0392 265.268 24.2292 264.918C26.4192 260.818 33.0492 254.198 38.1592 255.128C39.0044 255.304 39.8029 255.657 40.5028 256.163C41.2026 256.669 41.7881 257.317 42.2211 258.064C42.6541 258.811 42.9249 259.641 43.0159 260.499C43.1069 261.358 43.016 262.226 42.7492 263.048C41.7492 266.578 37.9592 269.048 34.7492 270.298C30.9192 271.768 21.8192 271.148 21.8092 271.148Z" fill="#263238"/>
<path d="M28.3293 243.338C28.2293 243.338 30.5493 237.458 30.7393 237.108C32.9293 233.018 39.5693 226.398 44.6793 227.318C45.5248 227.495 46.3234 227.849 47.0229 228.356C47.7225 228.863 48.3074 229.512 48.7395 230.26C49.1716 231.009 49.4413 231.839 49.5308 232.699C49.6204 233.558 49.5279 234.427 49.2593 235.248C48.2593 238.768 44.4693 241.248 41.2593 242.498C37.4393 243.958 28.3293 243.338 28.3293 243.338Z" fill="#263238"/>
<path d="M33.1994 216.818C33.0994 216.818 35.4194 210.938 35.6094 210.578C37.7994 206.488 44.4394 199.868 49.5494 200.798C50.3947 200.974 51.1932 201.327 51.8931 201.833C52.5929 202.339 53.1784 202.987 53.6114 203.734C54.0443 204.481 54.3152 205.311 54.4062 206.169C54.4971 207.028 54.4062 207.896 54.1394 208.718C53.1394 212.248 49.3394 214.718 46.1394 215.968C42.3094 217.428 33.1994 216.818 33.1994 216.818Z" fill="#263238"/>
<path d="M31.1295 193.768C31.0295 193.768 31.7195 187.508 31.8095 187.118C32.8095 182.588 37.4895 174.448 42.6695 173.998C43.531 173.946 44.3937 174.077 45.2015 174.38C46.0093 174.684 46.7441 175.155 47.3581 175.761C47.9722 176.368 48.4517 177.097 48.7655 177.901C49.0793 178.705 49.2204 179.566 49.1795 180.428C49.1795 184.098 46.1795 187.488 43.3595 189.538C40.0795 191.918 31.1295 193.768 31.1295 193.768Z" fill="#263238"/>
<path d="M18.7094 295.488C18.7994 295.488 17.7994 289.268 17.7094 288.888C16.4594 284.418 11.4094 276.518 6.21938 276.318C5.35533 276.308 4.49893 276.48 3.70598 276.824C2.91304 277.167 2.20136 277.674 1.61733 278.311C1.03331 278.948 0.590037 279.7 0.316428 280.52C0.0428187 281.34 -0.0549784 282.208 0.0293795 283.068C0.259379 286.728 3.40937 289.968 6.29937 291.878C9.67937 294.128 18.6994 295.488 18.7094 295.488Z" fill="#263238"/>
<path d="M21.4492 267.668C21.5492 267.668 19.6092 261.668 19.4492 261.288C17.5292 257.058 11.3392 250.018 6.17918 250.608C5.32414 250.73 4.50438 251.03 3.77329 251.49C3.04221 251.95 2.4162 252.559 1.93601 253.277C1.45583 253.995 1.13224 254.806 0.986336 255.657C0.840428 256.508 0.875478 257.381 1.08918 258.218C1.86918 261.798 5.47918 264.528 8.61918 265.978C12.3192 267.688 21.4392 267.668 21.4492 267.668Z" fill="#263238"/>
<path d="M27.6495 241.448C27.7395 241.448 25.8095 235.448 25.6495 235.078C23.7395 230.848 17.5495 223.808 12.3895 224.398C11.5347 224.519 10.7149 224.818 9.98346 225.277C9.25205 225.736 8.6254 226.343 8.14432 227.06C7.66324 227.777 7.3385 228.587 7.19122 229.438C7.04394 230.289 7.07742 231.161 7.28949 231.998C8.07949 235.588 11.6795 238.308 14.8295 239.768C18.5195 241.468 27.6395 241.448 27.6495 241.448Z" fill="#263238"/>
<path d="M32.1791 217.048C32.2791 217.048 30.3391 211.048 30.1791 210.668C28.2591 206.448 22.0791 199.408 16.9091 199.998C16.0545 200.118 15.2349 200.418 14.5038 200.877C13.7728 201.336 13.1467 201.944 12.6664 202.661C12.1861 203.378 11.8624 204.188 11.7164 205.039C11.5704 205.89 11.6054 206.761 11.8191 207.598C12.5991 211.188 16.2091 213.908 19.3591 215.358C23.0491 217.068 32.1791 217.048 32.1791 217.048Z" fill="#263238"/>
<path d="M30.9394 194.518C31.0394 194.518 28.4594 188.748 28.2494 188.398C25.8794 184.398 18.9594 178.088 13.8894 179.248C13.0528 179.462 12.2707 179.85 11.5944 180.387C10.918 180.924 10.3625 181.598 9.96428 182.364C9.56601 183.131 9.33391 183.972 9.2831 184.835C9.23229 185.697 9.36392 186.56 9.66942 187.368C10.8394 190.838 14.7194 193.158 18.0094 194.248C21.8694 195.538 30.9394 194.518 30.9394 194.518Z" fill="#263238"/>
<path d="M25.4793 174.578C25.5593 174.578 25.9293 168.308 25.9093 167.908C25.6393 163.268 22.4093 154.468 17.3793 153.158C16.5381 152.963 15.6655 152.948 14.8181 153.114C13.9707 153.279 13.1676 153.621 12.4611 154.117C11.7546 154.613 11.1605 155.253 10.7174 155.994C10.2743 156.735 9.99215 157.56 9.88935 158.418C9.32935 162.048 11.7094 165.888 14.1194 168.418C16.9494 171.298 25.4693 174.568 25.4793 174.578Z" fill="#263238"/>
<path d="M20.4091 329.768C20.4091 329.768 20.0792 327.118 19.6792 322.518C19.2792 317.918 18.8192 311.338 18.6092 303.428C18.4992 299.428 18.4591 295.188 18.5391 290.648C18.5391 288.368 18.6592 286.088 18.7492 283.648C18.8292 282.468 18.9192 281.278 18.9992 280.068C19.0792 278.858 19.2791 277.618 19.4091 276.378C20.0941 271.33 21.0522 266.322 22.2792 261.378C23.5092 256.328 24.9092 251.258 26.2792 246.198C27.6492 241.138 28.9992 236.078 30.0592 231.048C31.1375 226.136 31.8626 221.153 32.2291 216.138C32.4865 211.443 32.3259 206.734 31.7492 202.068C31.2756 197.838 30.5509 193.641 29.5792 189.498C28.6992 185.668 27.6691 182.208 26.7291 179.158C25.7891 176.108 24.8192 173.488 24.0192 171.338C22.3892 167.038 21.2792 164.658 21.2792 164.658C21.2792 164.658 22.4391 167.018 24.1591 171.278C25.0191 173.408 26.0092 176.018 27.0492 179.048C28.0892 182.078 29.1691 185.528 30.1291 189.358C31.2088 193.472 32.047 197.646 32.6392 201.858C33.3273 206.571 33.5951 211.337 33.4391 216.098C33.1719 221.182 32.5471 226.241 31.5691 231.238C30.5691 236.338 29.3691 241.458 28.0991 246.558C26.8291 251.658 25.4992 256.768 24.3892 261.768C23.2868 266.659 22.4522 271.606 21.8892 276.588C21.7892 277.798 21.6091 278.948 21.5691 280.168C21.5291 281.388 21.4492 282.578 21.3892 283.758C21.3892 286.038 21.3192 288.398 21.3392 290.628C21.3392 295.118 21.4891 299.358 21.6891 303.268C22.0591 311.098 22.6891 317.608 23.1591 322.148C23.6291 326.688 24.0292 329.248 24.0292 329.248C24.064 329.485 24.0517 329.726 23.9932 329.959C23.9346 330.191 23.8309 330.409 23.6879 330.602C23.5449 330.794 23.3654 330.956 23.1597 331.079C22.954 331.202 22.7262 331.283 22.4892 331.318C22.2521 331.353 22.0106 331.34 21.7783 331.282C21.5459 331.223 21.3274 331.119 21.1352 330.976C20.943 330.833 20.7808 330.654 20.6579 330.448C20.5351 330.243 20.454 330.015 20.4191 329.778V329.768H20.4091Z" fill="#263238"/>
<path d="M9.28955 319.438H34.2196V324.598H32.0496L27.5496 352.758H15.9696L11.4596 324.598H9.28955V319.438Z" fill="#263238" stroke="#263238" stroke-linecap="round" stroke-linejoin="round"/>
<path d="M229.73 341.505C229.73 341.505 228.87 346.575 229.5 347.715C230.13 348.855 231.14 350.355 231.14 350.355H239.08L239.51 347.905C240.605 349.121 241.948 350.086 243.45 350.735C245.56 351.485 247.6 350.735 250.07 350.925C252.16 351.085 257.07 350.925 257.07 350.925L256.93 348.275L242.6 341.855L237.47 337.855C237.47 337.855 232.97 341.915 229.73 341.505Z" fill="#263238" stroke="#263238" stroke-linecap="round" stroke-linejoin="round"/>
<path d="M170.59 341.505C170.59 341.505 171.95 345.635 171.45 346.765C170.95 347.895 170.13 350.355 170.13 350.355H162.2L161.5 347.905C160.534 349.126 159.289 350.097 157.87 350.735C155.87 351.485 153.71 350.735 151.27 350.925C149.2 351.085 144.27 350.925 144.27 350.925L144.13 348.275L157.76 341.855L163.17 338.855C163.17 338.855 167.39 341.915 170.59 341.505Z" fill="#263238" stroke="#263238" stroke-linecap="round" stroke-linejoin="round"/>
<path d="M234.01 146.545C234.01 146.545 237.29 189.005 238.43 209.305C239.57 229.605 240.1 238.815 240.23 253.105C240.36 267.395 240.99 295.635 240.99 306.245C241.001 317.077 240.296 327.897 238.88 338.635L229.29 343.745C229.29 343.745 226.19 316.505 224.94 306.745C223.81 297.915 219.68 261.985 217.81 250.875C215.94 239.765 207.42 201.135 207.42 201.135C207.42 201.135 196.05 241.665 193.11 257.855C190.17 274.045 179.11 310.555 176.74 319.435C174.37 328.315 170.59 341.485 170.59 341.485C169.257 341.876 167.857 341.985 166.48 341.805C165.862 341.757 165.265 341.557 164.742 341.224C164.219 340.891 163.786 340.435 163.48 339.895C163.48 339.895 166.27 313.315 167.42 300.395C168.85 284.395 169.3 263.155 171.04 254.265C172.78 245.375 172.72 228.345 174.74 216.915C175.89 210.425 181.74 148.335 181.74 148.335C181.74 148.335 214.18 161.465 234.01 146.545Z" fill="#263238" stroke="#263238" stroke-linecap="round" stroke-linejoin="round"/>
<path d="M238.88 338.635L231.41 344.695" stroke="white" stroke-width="0.5" stroke-linecap="round" stroke-linejoin="round"/>
<path d="M163.18 338.835L169.11 343.385" stroke="white" stroke-width="0.5" stroke-linecap="round" stroke-linejoin="round"/>
<path d="M212.32 160.835L211.72 185.595L215.92 181.405" stroke="white" stroke-width="0.5" stroke-linecap="round" stroke-linejoin="round"/>
<path d="M209.7 200.415L221.63 185.575" stroke="white" stroke-width="0.5" stroke-linecap="round" stroke-linejoin="round"/>
<path d="M224.94 186.655L214.99 196.415" stroke="white" stroke-width="0.5" stroke-linecap="round" stroke-linejoin="round"/>
<path d="M202.6 187.745C199.522 180.931 194.262 175.337 187.65 171.845" stroke="white" stroke-width="0.5" stroke-linecap="round" stroke-linejoin="round"/>
<path d="M217.77 154.135L217.2 157.035L212.56 158.115L213.09 154.505" stroke="white" stroke-width="0.5" stroke-linecap="round" stroke-linejoin="round"/>
<path d="M212.56 158.115C212.56 158.115 203.87 157.755 199.46 156.305L200.39 153.415" stroke="white" stroke-width="0.5" stroke-linecap="round" stroke-linejoin="round"/>
<path d="M196.37 152.695L195.49 156.305C195.49 156.305 188.6 155.945 187.49 154.865" stroke="white" stroke-width="0.5" stroke-linecap="round" stroke-linejoin="round"/>
<path d="M217.2 157.005C219.565 156.936 221.882 156.32 223.97 155.205L227.12 153.395L225.9 150.865" stroke="white" stroke-width="0.5" stroke-linecap="round" stroke-linejoin="round"/>
<path d="M238.29 63.4554C238.29 63.4554 244.57 68.9054 246.45 72.5054C248.33 76.1054 273.01 126.425 272.91 129.865C272.81 133.305 269.16 139.865 262.72 139.865C256.28 139.865 231.87 100.645 231.87 100.645L238.29 63.4554Z" fill="white"/>
<mask id="mask0_382_7598" style="mask-type:luminance" maskUnits="userSpaceOnUse" x="231" y="63" width="42" height="77">
<path d="M238.29 63.4554C238.29 63.4554 244.57 68.9054 246.45 72.5054C248.33 76.1054 273.01 126.425 272.91 129.865C272.81 133.305 269.16 139.865 262.72 139.865C256.28 139.865 231.87 100.645 231.87 100.645L238.29 63.4554Z" fill="white"/>
</mask>
<g mask="url(#mask0_382_7598)">
<g style="mix-blend-mode:multiply" opacity="0.5">
<path d="M239.06 69.4954L239.48 69.7254C240.22 70.1554 241.88 71.1254 243.7 72.3354C245.757 73.9129 247.631 75.714 249.29 77.7054C249.29 77.7054 247.03 71.7054 243.72 68.8354C241.879 67.2539 240.167 65.5284 238.6 63.6754L239.06 69.4954Z" fill="#853030"/>
</g>
</g>
<path d="M238.29 63.4554C238.29 63.4554 244.57 68.9054 246.45 72.5054C248.33 76.1054 273.01 126.425 272.91 129.865C272.81 133.305 269.16 139.865 262.72 139.865C256.28 139.865 231.87 100.645 231.87 100.645L238.29 63.4554Z" stroke="#263238" stroke-linecap="round" stroke-linejoin="round"/>
<path opacity="0.5" d="M254.02 116.075C253.19 115.075 247.02 105.145 246.39 101.435C245.76 97.7255 247.39 92.9755 247.39 90.4955C247.39 88.0155 243.47 94.8255 243.26 94.0055C243.05 93.1855 240.58 84.3055 240.58 84.3055L233.01 94.0955L231.88 100.665C231.88 100.665 241.44 116.015 250.18 127.505C256.4 125.505 265.79 122.455 267.81 121.235C270.94 119.385 254.85 117.115 254.02 116.075Z" fill="#853030"/>
<path d="M208.14 56.6555L238.33 63.4555C238.33 63.4555 240.43 78.9255 240.19 87.2855C239.95 95.6455 233.73 147.345 233.73 147.345C233.73 147.345 217.73 163.665 181.81 148.345C181.81 148.345 180.56 145.935 180.09 127.915C179.64 110.145 166.28 77.1455 167.35 73.3855C169.55 65.6755 195.97 58.2655 199.44 58.0555C202.367 57.7772 205.273 57.3095 208.14 56.6555Z" fill="white" stroke="#263238" stroke-linecap="round" stroke-linejoin="round"/>
<g style="mix-blend-mode:multiply" opacity="0.5">
<path d="M210.87 147.255L183.22 136.415L188 83.8954L219.45 98.6154L238.3 90.1355L224.82 144.945L210.87 147.255Z" fill="#853030"/>
</g>
<g style="mix-blend-mode:multiply" opacity="0.5">
<path d="M219.05 65.7254C220.34 65.7254 232.27 68.1154 239.05 69.4954C238.66 65.9554 238.32 63.4954 238.32 63.4954L208.13 56.6954C205.263 57.3529 202.357 57.8239 199.43 58.1054C195.96 58.3154 169.54 65.7254 167.34 73.4354C166.99 74.6854 168.21 79.1254 170.02 85.1554C172.66 78.3454 175.02 72.7354 175.83 71.9454C177.65 70.1254 195.83 65.4054 195.83 65.4054L219.05 65.7254Z" fill="#853030"/>
</g>
<path d="M216.34 72.0954L212.19 81.3754L221.29 145.675L214.62 154.675L208.29 147.335L210.06 82.1954L201.68 72.4155L207.04 62.2755L216.34 72.0954Z" fill="#263238"/>
<path d="M248.49 92.8754L224.3 106.295L193.19 90.0154L188.26 135.965L219.07 150.815L242.4 136.775L248.49 92.8754Z" fill="#853030" stroke="#263238" stroke-linecap="round" stroke-linejoin="round"/>
<path d="M223.38 116.615L224.3 109.235" stroke="#263238" stroke-width="0.5" stroke-linecap="round" stroke-linejoin="round"/>
<path d="M219.07 150.815L222.87 120.665" stroke="#263238" stroke-width="0.5" stroke-linecap="round" stroke-linejoin="round"/>
<path d="M210.95 54.0755C210.95 54.0755 216.4 54.0755 218.77 57.6755C221.14 61.2755 225.69 75.5055 225.69 75.5055L209.29 70.8955L199.35 81.1655C199.35 81.1655 190.24 67.6655 193.95 59.0955C197.66 50.5255 210.95 54.0755 210.95 54.0755Z" fill="white" stroke="#263238" stroke-linecap="round" stroke-linejoin="round"/>
<g style="mix-blend-mode:multiply" opacity="0.5">
<path d="M220.43 61.0054C219.96 59.8556 219.406 58.7424 218.77 57.6754C216.4 54.0254 210.95 54.0754 210.95 54.0754C210.95 54.0754 197.68 50.5255 193.95 59.0755C192.75 61.8455 192.95 65.1354 193.64 68.3154C194.29 66.6154 195.76 63.2054 197.64 61.3154C200.18 58.7754 200.48 60.9854 200.48 60.9854L214.7 59.8555C216.583 60.3607 218.497 60.7448 220.43 61.0054Z" fill="#853030"/>
</g>
<path d="M213.29 45.7955C213.29 45.7955 214.21 64.7155 211.82 68.4455C209.43 72.1755 206.71 70.7455 204.72 68.4455C202.73 66.1455 200.48 61.0055 200.48 61.0055L198.05 47.0055C198.05 47.0055 212.21 49.6155 213.29 45.7955Z" fill="white" stroke="#263238" stroke-linecap="round" stroke-linejoin="round"/>
<g style="mix-blend-mode:multiply" opacity="0.5">
<path d="M208.16 61.0055C210.22 60.4154 212.049 59.2077 213.4 57.5455C213.4 56.4755 213.4 55.4155 213.4 54.3855C211.07 51.7155 205.72 46.6755 199.76 48.2955C199.25 48.4355 198.76 48.5955 198.31 48.7555L200.47 61.0055C200.47 61.0055 202.73 66.1855 204.71 68.4455L202.71 59.5155C203.408 60.2203 204.279 60.7291 205.235 60.9906C206.192 61.2522 207.201 61.2573 208.16 61.0055Z" fill="#853030"/>
</g>
<path d="M221.63 28.5855C221.63 28.5855 224.37 28.3855 224.43 32.9555C224.49 37.5255 221.8 41.3655 219.95 39.7755C218.1 38.1855 221.12 26.5055 221.63 28.5855Z" fill="white" stroke="#263238" stroke-linecap="round" stroke-linejoin="round"/>
<path d="M202.82 4.92548C190.35 7.86548 187.01 15.9255 187.11 23.2255C187.11 26.0155 188.4 30.8455 190.11 35.9355L189.89 35.4755C189.89 35.4755 186.14 28.9355 185.59 32.8655C185.04 36.7955 188.75 40.8655 189.98 42.1755C190.321 42.4899 190.761 42.6758 191.225 42.7014C191.688 42.7269 192.146 42.5905 192.52 42.3155C195 48.3155 197.77 53.6855 199.58 55.1455C203.5 58.3155 209.01 59.9455 213.39 56.1455C217.77 52.3455 222.1 30.6755 222.1 30.6755C223.14 8.75548 215.29 2.00548 202.82 4.92548Z" fill="white"/>
<mask id="mask1_382_7598" style="mask-type:luminance" maskUnits="userSpaceOnUse" x="185" y="4" width="38" height="55">
<path d="M202.82 4.92548C190.35 7.86548 187.01 15.9255 187.11 23.2255C187.11 26.0155 188.4 30.8455 190.11 35.9355L189.89 35.4755C189.89 35.4755 186.14 28.9355 185.59 32.8655C185.04 36.7955 188.75 40.8655 189.98 42.1755C190.321 42.4899 190.761 42.6758 191.225 42.7014C191.688 42.7269 192.146 42.5905 192.52 42.3155C195 48.3155 197.77 53.6855 199.58 55.1455C203.5 58.3155 209.01 59.9455 213.39 56.1455C217.77 52.3455 222.1 30.6755 222.1 30.6755C223.14 8.75548 215.29 2.00548 202.82 4.92548Z" fill="white"/>
</mask>
<g mask="url(#mask1_382_7598)">
<g style="mix-blend-mode:multiply" opacity="0.5">
<path d="M196.18 28.0054C196.18 28.0054 200.53 24.3755 204.89 24.3755C209.25 24.3755 218.33 28.3754 219.41 31.6354C220.07 33.6354 219.29 40.0855 218.56 44.9855C220.66 38.0855 222.14 30.7054 222.14 30.7054C223.14 8.79544 215.28 2.02545 202.82 4.96545C190.36 7.90545 187.01 15.9654 187.11 23.2654C187.11 26.0554 188.4 30.8854 190.11 35.9754L189.89 35.5154C189.89 35.5154 186.14 28.9754 185.59 32.9054C185.04 36.8354 188.75 40.9054 189.98 42.2154C190.321 42.5299 190.761 42.7158 191.225 42.7413C191.688 42.7669 192.146 42.6304 192.52 42.3554C195 48.3554 197.77 53.7254 199.58 55.1854C199.58 55.1854 195.41 45.7955 193.96 41.8055C192.51 37.8155 192.91 30.8754 196.18 28.0054Z" fill="#853030"/>
</g>
</g>
<path d="M202.82 4.92548C190.35 7.86548 187.01 15.9255 187.11 23.2255C187.11 26.0155 188.4 30.8455 190.11 35.9355L189.89 35.4755C189.89 35.4755 186.14 28.9355 185.59 32.8655C185.04 36.7955 188.75 40.8655 189.98 42.1755C190.321 42.4899 190.761 42.6758 191.225 42.7014C191.688 42.7269 192.146 42.5905 192.52 42.3155C195 48.3155 197.77 53.6855 199.58 55.1455C203.5 58.3155 209.01 59.9455 213.39 56.1455C217.77 52.3455 222.1 30.6755 222.1 30.6755C223.14 8.75548 215.29 2.00548 202.82 4.92548Z" stroke="#263238" stroke-linecap="round" stroke-linejoin="round"/>
<path d="M217.48 37.0555C216.856 37.9945 215.887 38.6507 214.784 38.8827C213.68 39.1146 212.53 38.9037 211.58 38.2955" stroke="#263238" stroke-linecap="round" stroke-linejoin="round"/>
<path d="M204.17 38.3755C203.546 39.3145 202.577 39.9707 201.474 40.2027C200.37 40.4346 199.22 40.2237 198.27 39.6155" stroke="#263238" stroke-linecap="round" stroke-linejoin="round"/>
<path d="M204.81 35.3555C203.198 34.5466 201.453 34.0351 199.66 33.8455C197.28 33.7455 194.94 35.6855 194.94 35.6855" stroke="#263238" stroke-linecap="round" stroke-linejoin="round"/>
<path d="M210.55 45.4554C210.465 46.0631 210.145 46.6132 209.659 46.9873C209.173 47.3614 208.559 47.5295 207.95 47.4554C207.314 47.4748 206.685 47.3178 206.132 47.0019C205.58 46.686 205.126 46.2235 204.82 45.6655" stroke="#263238" stroke-linecap="round" stroke-linejoin="round"/>
<path d="M212.65 50.2855C212.65 50.2855 206.81 52.0255 203.06 50.5155C203.55 51.3962 204.22 52.164 205.026 52.7687C205.833 53.3735 206.757 53.8017 207.74 54.0255C209.96 54.6155 212.65 50.2855 212.65 50.2855Z" fill="#263238"/>
<path d="M218.21 32.7255C218.21 32.7255 216.02 32.5355 213.95 32.5555C212.05 32.5555 210.16 35.0255 210.16 35.0255L209.49 38.0255" stroke="#263238" stroke-linecap="round" stroke-linejoin="round"/>
<path d="M200.19 21.9355C204.725 25.7332 209.681 28.9979 214.96 31.6655C223.56 35.9655 230.16 27.6655 226.13 23.5855C222.1 19.5055 231.38 28.0655 232.84 22.9455C234.3 17.8255 220.94 0.255465 207.52 0.00546528C194.1 -0.244535 190.85 8.16547 190.85 8.16547C190.85 8.16547 189.27 3.83547 188.08 6.22547C187.388 7.52621 186.992 8.96381 186.92 10.4355C186.92 10.4355 184.2 12.4355 183 13.6255C181.8 14.8155 183.34 16.0755 183.34 16.0755C183.34 16.0755 180.94 22.0755 182.22 26.7055L189.11 36.7055C189.941 36.6785 190.755 36.4607 191.489 36.0688C192.222 35.6769 192.856 35.1214 193.34 34.4455C195.14 32.0855 193.82 24.7255 193.82 24.7255C193.82 24.7255 193.93 32.6455 196.04 30.9055C198.15 29.1655 195.04 21.4255 195.04 21.4255L200.19 21.9355Z" fill="#263238"/>
<path d="M194.2 13.7555C194.2 13.7555 200.34 18.3755 204.78 22.5955C209.22 26.8155 215.99 28.4355 218 27.5055" stroke="white" stroke-width="0.5" stroke-miterlimit="10" stroke-linecap="round"/>
<path d="M213.17 19.5654C213.17 19.5654 204.37 17.5654 202.3 13.7454C200.23 9.92545 193.82 10.3755 193.82 10.3755C195.421 8.89888 197.375 7.85852 199.493 7.3542C201.612 6.84988 203.825 6.89852 205.92 7.49545" stroke="white" stroke-width="0.5" stroke-miterlimit="10" stroke-linecap="round"/>
<path d="M190.86 15.6454C190.86 15.6454 197.74 26.0154 193.4 29.2054" stroke="white" stroke-width="0.5" stroke-miterlimit="10" stroke-linecap="round"/>
<path d="M167.35 73.3954C167.35 73.3954 148.68 124.295 149.54 129.975C150.4 135.655 160.2 133.395 163.29 132.625C166.38 131.855 178.29 112.955 178.37 108.885C179.14 108.404 179.798 107.765 180.301 107.01C180.805 106.254 181.142 105.401 181.29 104.505C182.02 101.225 182.52 89.5055 177.78 80.7155" fill="white"/>
<mask id="mask2_382_7598" style="mask-type:luminance" maskUnits="userSpaceOnUse" x="149" y="73" width="33" height="61">
<path d="M167.35 73.3954C167.35 73.3954 148.68 124.295 149.54 129.975C150.4 135.655 160.2 133.395 163.29 132.625C166.38 131.855 178.29 112.955 178.37 108.885C179.14 108.404 179.798 107.765 180.301 107.01C180.805 106.254 181.142 105.401 181.29 104.505C182.02 101.225 182.52 89.5055 177.78 80.7155" fill="white"/>
</mask>
<g mask="url(#mask2_382_7598)">
<g style="mix-blend-mode:multiply" opacity="0.5">
<path d="M167.35 73.3954C167.35 73.3954 148.68 124.295 149.54 129.975C150.02 133.085 153.18 133.805 156.44 133.705C158.72 127.275 159.61 115.525 161.32 109.705C163.21 103.195 169.37 86.3454 173.12 77.4854L167.35 73.3954Z" fill="#853030"/>
</g>
</g>
<path d="M167.35 73.3954C167.35 73.3954 148.68 124.295 149.54 129.975C150.4 135.655 160.2 133.395 163.29 132.625C166.38 131.855 178.29 112.955 178.37 108.885C179.14 108.404 179.798 107.765 180.301 107.01C180.805 106.254 181.142 105.401 181.29 104.505C182.02 101.225 182.52 89.5055 177.78 80.7155" stroke="#263238" stroke-linecap="round" stroke-linejoin="round"/>
<path d="M181.46 125.325C181.46 125.325 157.46 123.865 154.38 123.615C151.3 123.365 147.61 127.615 150.51 133.495C153.41 139.375 158.02 139.715 163.68 138.645C169.34 137.575 181.84 129.945 181.84 129.945L181.46 125.325Z" fill="white"/>
<mask id="mask3_382_7598" style="mask-type:luminance" maskUnits="userSpaceOnUse" x="149" y="123" width="33" height="17">
<path d="M181.46 125.325C181.46 125.325 157.46 123.865 154.38 123.615C151.3 123.365 147.61 127.615 150.51 133.495C153.41 139.375 158.02 139.715 163.68 138.645C169.34 137.575 181.84 129.945 181.84 129.945L181.46 125.325Z" fill="white"/>
</mask>
<g mask="url(#mask3_382_7598)">
<path opacity="0.5" d="M181.46 125.325C181.46 125.325 157.46 123.865 154.38 123.615C151.3 123.365 147.61 127.615 150.51 133.495C153.41 139.375 158.02 139.715 163.68 138.645C169.34 137.575 181.84 129.945 181.84 129.945L181.46 125.325Z" fill="#853030" stroke="#263238" stroke-linecap="round" stroke-linejoin="round"/>
</g>
<path d="M181.46 125.325C181.46 125.325 157.46 123.865 154.38 123.615C151.3 123.365 147.61 127.615 150.51 133.495C153.41 139.375 158.02 139.715 163.68 138.645C169.34 137.575 181.84 129.945 181.84 129.945L181.46 125.325Z" stroke="#263238" stroke-linecap="round" stroke-linejoin="round"/>
<path d="M185.29 119.475C185.29 119.475 188.39 116.185 189.21 116.255C190.03 116.325 196.05 115.995 196.56 117.405C197.07 118.815 196.26 118.195 195.43 118.665C194.6 119.135 190.48 119.665 190.48 119.665C190.48 119.665 194.03 119.955 195.1 120.585C196.17 121.215 200.7 125.396 200.68 126.216C200.66 127.036 200.11 127.216 199.01 127.216C197.91 127.216 198.72 128.005 198.42 128.795C198.12 129.585 195.95 129.415 195.95 129.415C195.95 129.415 196.14 132.155 194.5 132.015C192.86 131.875 189.92 129.735 189.92 129.735C189.92 129.735 183.85 131.955 181.67 131.785C180.238 131.721 178.815 132.042 177.55 132.716C179.383 127.906 181.998 123.432 185.29 119.475Z" fill="white"/>
<mask id="mask4_382_7598" style="mask-type:luminance" maskUnits="userSpaceOnUse" x="177" y="116" width="24" height="17">
<path d="M185.29 119.475C185.29 119.475 188.39 116.185 189.21 116.255C190.03 116.325 196.05 115.995 196.56 117.405C197.07 118.815 196.26 118.195 195.43 118.665C194.6 119.135 190.48 119.665 190.48 119.665C190.48 119.665 194.03 119.955 195.1 120.585C196.17 121.215 200.7 125.396 200.68 126.216C200.66 127.036 200.11 127.216 199.01 127.216C197.91 127.216 198.72 128.005 198.42 128.795C198.12 129.585 195.95 129.415 195.95 129.415C195.95 129.415 196.14 132.155 194.5 132.015C192.86 131.875 189.92 129.735 189.92 129.735C189.92 129.735 183.85 131.955 181.67 131.785C180.238 131.721 178.815 132.042 177.55 132.716C179.383 127.906 181.998 123.432 185.29 119.475Z" fill="white"/>
</mask>
<g mask="url(#mask4_382_7598)">
<g style="mix-blend-mode:multiply" opacity="0.5">
<path d="M185.29 119.475C182.007 123.405 179.392 127.848 177.55 132.625C178.815 131.952 180.238 131.631 181.67 131.695C182.387 131.708 183.102 131.63 183.8 131.466C184.234 129.553 184.492 127.605 184.57 125.645C184.57 122.735 189.21 116.255 189.21 116.255C188.38 116.185 185.29 119.475 185.29 119.475Z" fill="#853030"/>
</g>
</g>
<path d="M185.29 119.475C185.29 119.475 188.39 116.185 189.21 116.255C190.03 116.325 196.05 115.995 196.56 117.405C197.07 118.815 196.26 118.195 195.43 118.665C194.6 119.135 190.48 119.665 190.48 119.665C190.48 119.665 194.03 119.955 195.1 120.585C196.17 121.215 200.7 125.396 200.68 126.216C200.66 127.036 200.11 127.216 199.01 127.216C197.91 127.216 198.72 128.005 198.42 128.795C198.12 129.585 195.95 129.415 195.95 129.415C195.95 129.415 196.14 132.155 194.5 132.015C192.86 131.875 189.92 129.735 189.92 129.735C189.92 129.735 183.85 131.955 181.67 131.785C180.238 131.721 178.815 132.042 177.55 132.716C179.383 127.906 181.998 123.432 185.29 119.475Z" stroke="#263238" stroke-linecap="round" stroke-linejoin="round"/>
<path d="M199.01 127.125L193.66 122.875L189.3 122.245" stroke="#263238" stroke-linecap="round" stroke-linejoin="round"/>
<path d="M195.94 129.326L190.01 126.115L187.29 125.625" stroke="#263238" stroke-linecap="round" stroke-linejoin="round"/>
<path d="M251.01 115.425C251.01 115.425 247.91 112.145 247.09 112.205C246.27 112.265 240.25 111.955 239.74 113.355C239.23 114.755 240.04 114.145 240.87 114.625C242.487 115.093 244.144 115.411 245.82 115.575C245.82 115.575 242.27 115.865 241.2 116.505C240.13 117.145 235.6 121.315 235.62 122.125C235.64 122.935 236.19 123.125 237.29 123.125C238.39 123.125 237.58 123.915 237.88 124.705C238.18 125.495 240.35 125.315 240.35 125.315C240.35 125.315 240.16 128.055 241.8 127.925C243.44 127.795 246.38 125.645 246.38 125.645C246.38 125.645 252.45 127.865 254.63 127.645C256.063 127.579 257.487 127.904 258.75 128.585C256.909 123.804 254.294 119.358 251.01 115.425Z" fill="white" stroke="#263238" stroke-linecap="round" stroke-linejoin="round"/>
<path d="M237.29 123.075L242.63 118.835L246.99 118.205" stroke="#263238" stroke-linecap="round" stroke-linejoin="round"/>
<path d="M240.35 125.275L246.28 122.075L249 121.575" stroke="#263238" stroke-linecap="round" stroke-linejoin="round"/>
<path d="M254.58 120.405C254.58 120.405 264.87 119.225 268.4 121.875C271.93 124.525 271.34 131.275 271.34 131.275" stroke="#263238" stroke-linecap="round" stroke-linejoin="round"/>
<path d="M173.29 338.005C173.29 338.005 174.39 335.815 177.9 336.255C181.41 336.695 183.61 340.865 181.19 342.175C178.77 343.485 173.29 338.005 173.29 338.005Z" fill="#853030" stroke="#263238" stroke-linecap="round" stroke-linejoin="round"/>
<path d="M178.48 236.165C178.48 236.165 186.74 237.825 190.71 240.465C194.68 243.105 195.33 243.765 196.32 249.055C197.31 254.345 193.68 268.545 193.68 275.815C193.68 283.085 188.39 327.355 188.39 331.005C188.39 334.655 192.03 342.235 191.7 344.875C191.56 346.774 191.784 348.681 192.36 350.495C192.36 350.495 194.67 352.145 191.7 352.495C188.73 352.845 188.39 353.155 185.75 351.835C183.11 350.515 181.75 343.905 179.47 341.925C177.19 339.945 175.84 337.635 175.84 335.975C175.84 334.315 181.12 328.055 181.12 328.055C181.12 328.055 180.46 318.805 180.12 310.875C179.78 302.945 176.12 285.435 176.12 277.875C176.12 270.315 181.12 252.435 181.12 252.435C181.12 252.435 168.29 254.005 163.29 250.705C158.29 247.405 163.95 232.865 178.48 236.165Z" fill="white" stroke="#263238" stroke-linecap="round" stroke-linejoin="round"/>
<path d="M179.47 341.885C179.47 341.885 173.47 336.735 173.29 338.045C173.11 339.355 173.07 349.685 173.51 350.775C173.95 351.865 185.8 352.975 191.95 354.075C198.1 355.175 195.68 351.215 194.36 350.335C193.04 349.455 179.47 341.885 179.47 341.885Z" fill="#853030" stroke="#263238" stroke-linecap="round" stroke-linejoin="round"/>
<path opacity="0.2" d="M179.47 341.885C179.47 341.885 173.47 336.735 173.29 338.045C173.11 339.355 173.07 349.685 173.51 350.775C173.95 351.865 185.8 352.975 191.95 354.075C198.1 355.175 195.68 351.215 194.36 350.335C193.04 349.455 179.47 341.885 179.47 341.885Z" fill="black"/>
<path d="M181.19 347.705C182.392 346.266 183.796 345.009 185.36 343.975C187.218 342.656 189.303 341.69 191.51 341.125L194.36 346.605C192.395 347.069 190.485 347.74 188.66 348.605C187.276 349.444 186.02 350.478 184.93 351.675C184.93 351.675 181.63 349.465 181.19 347.705Z" fill="#263238" stroke="#263238" stroke-linecap="round" stroke-linejoin="round"/>
<path d="M187.12 341.565C186.843 341.6 186.576 341.691 186.335 341.833C186.094 341.975 185.885 342.165 185.72 342.391C185.555 342.616 185.438 342.873 185.377 343.146C185.315 343.418 185.309 343.701 185.36 343.975C185.58 346.175 185.8 353.195 186.68 353.415C187.56 353.635 198.53 355.415 202.48 355.605C206.43 355.795 210.82 355.825 210.82 353.855C210.82 351.885 210.16 351.005 209.29 351.005C208.42 351.005 206.43 350.345 203.8 348.815C201.17 347.285 194.8 341.355 192.8 341.135C190.8 340.915 188.22 339.585 187.12 341.565Z" fill="#853030" stroke="#263238" stroke-linecap="round" stroke-linejoin="round"/>
<path opacity="0.2" d="M187.12 341.565C186.843 341.6 186.576 341.691 186.335 341.833C186.094 341.975 185.885 342.165 185.72 342.391C185.555 342.616 185.438 342.873 185.377 343.146C185.315 343.418 185.309 343.701 185.36 343.975C185.58 346.175 185.8 353.195 186.68 353.415C187.56 353.635 198.53 355.415 202.48 355.605C206.43 355.795 210.82 355.825 210.82 353.855C210.82 351.885 210.16 351.005 209.29 351.005C208.42 351.005 206.43 350.345 203.8 348.815C201.17 347.285 194.8 341.355 192.8 341.135C190.8 340.915 188.22 339.585 187.12 341.565Z" fill="black"/>
<path d="M95.1001 351.005C95.1001 350.017 94.8069 349.05 94.2574 348.228C93.708 347.405 92.9271 346.764 92.0135 346.386C91.0999 346.008 90.0946 345.909 89.1246 346.102C88.1547 346.294 87.2638 346.771 86.5646 347.47C85.8653 348.169 85.3891 349.06 85.1962 350.03C85.0032 351 85.1023 352.005 85.4807 352.919C85.8591 353.832 86.5 354.613 87.3222 355.163C88.1445 355.712 89.1112 356.005 90.1001 356.005C91.4262 356.005 92.698 355.479 93.6356 354.541C94.5733 353.603 95.1001 352.332 95.1001 351.005Z" fill="#263238" stroke="#263238" stroke-linecap="round" stroke-linejoin="round"/>
<path d="M90.1001 353.495C91.4808 353.495 92.6001 352.376 92.6001 350.995C92.6001 349.615 91.4808 348.495 90.1001 348.495C88.7194 348.495 87.6001 349.615 87.6001 350.995C87.6001 352.376 88.7194 353.495 90.1001 353.495Z" fill="white" stroke="#263238" stroke-linecap="round" stroke-linejoin="round"/>
<path d="M148.68 351.005C148.68 350.017 148.387 349.05 147.838 348.228C147.288 347.405 146.507 346.764 145.594 346.386C144.68 346.008 143.675 345.909 142.705 346.102C141.735 346.294 140.844 346.771 140.145 347.47C139.445 348.169 138.969 349.06 138.776 350.03C138.583 351 138.682 352.005 139.061 352.919C139.439 353.832 140.08 354.613 140.902 355.163C141.725 355.712 142.691 356.005 143.68 356.005C145.006 356.005 146.278 355.479 147.216 354.541C148.153 353.603 148.68 352.332 148.68 351.005Z" fill="#263238" stroke="#263238" stroke-linecap="round" stroke-linejoin="round"/>
<path d="M146.18 351.005C146.18 350.511 146.034 350.028 145.759 349.617C145.484 349.205 145.094 348.885 144.637 348.696C144.18 348.507 143.677 348.457 143.192 348.553C142.707 348.65 142.262 348.888 141.912 349.238C141.563 349.587 141.325 350.033 141.228 350.518C141.132 351.003 141.181 351.505 141.37 351.962C141.56 352.419 141.88 352.809 142.291 353.084C142.702 353.359 143.186 353.505 143.68 353.505C144.343 353.505 144.979 353.242 145.448 352.773C145.917 352.304 146.18 351.668 146.18 351.005Z" fill="white" stroke="#263238" stroke-linecap="round" stroke-linejoin="round"/>
<path d="M166.19 351.005C166.19 350.017 165.897 349.05 165.348 348.228C164.798 347.405 164.017 346.764 163.104 346.386C162.19 346.008 161.185 345.909 160.215 346.102C159.245 346.294 158.354 346.771 157.655 347.47C156.956 348.169 156.479 349.06 156.287 350.03C156.094 351 156.193 352.005 156.571 352.919C156.949 353.832 157.59 354.613 158.413 355.163C159.235 355.712 160.202 356.005 161.19 356.005C162.517 356.005 163.788 355.479 164.726 354.541C165.664 353.603 166.19 352.332 166.19 351.005Z" fill="#263238" stroke="#263238" stroke-linecap="round" stroke-linejoin="round"/>
<path d="M163.69 351.005C163.692 350.508 163.547 350.022 163.272 349.607C162.997 349.193 162.605 348.87 162.146 348.678C161.687 348.487 161.181 348.437 160.693 348.533C160.205 348.63 159.757 348.869 159.406 349.221C159.054 349.572 158.815 350.02 158.718 350.508C158.622 350.996 158.672 351.502 158.863 351.961C159.055 352.42 159.378 352.812 159.792 353.087C160.206 353.362 160.693 353.507 161.19 353.505C161.853 353.505 162.489 353.242 162.958 352.773C163.427 352.304 163.69 351.668 163.69 351.005Z" fill="white" stroke="#263238" stroke-linecap="round" stroke-linejoin="round"/>
<path d="M135.92 265.165H125.34V345.275H135.92V265.165Z" fill="#263238" stroke="#263238" stroke-linecap="round" stroke-linejoin="round"/>
<path d="M138.75 307.025H122.53V345.275H138.75V307.025Z" fill="#263238" stroke="#263238" stroke-linecap="round" stroke-linejoin="round"/>
<path d="M89.0703 343.765H163.8C164.861 343.765 165.879 344.187 166.629 344.937C167.379 345.687 167.8 346.705 167.8 347.765V348.295H85.0703V347.765C85.0703 346.705 85.4917 345.687 86.2419 344.937C86.992 344.187 88.0094 343.765 89.0703 343.765Z" fill="#263238" stroke="#263238" stroke-linecap="round" stroke-linejoin="round"/>
<path d="M119.83 234.185H106.23V256.105H119.83V234.185Z" fill="#263238" stroke="#263238" stroke-linecap="round" stroke-linejoin="round"/>
<path d="M174.69 253.075H86.5702C82.522 253.075 79.2402 256.357 79.2402 260.405V262.375C79.2402 266.424 82.522 269.705 86.5702 269.705H174.69C178.738 269.705 182.02 266.424 182.02 262.375V260.405C182.02 256.357 178.738 253.075 174.69 253.075Z" fill="#853030" stroke="#263238" stroke-linecap="round" stroke-linejoin="round"/>
<path opacity="0.1" d="M174.69 253.075H86.5702C82.522 253.075 79.2402 256.357 79.2402 260.405V262.375C79.2402 266.424 82.522 269.705 86.5702 269.705H174.69C178.738 269.705 182.02 266.424 182.02 262.375V260.405C182.02 256.357 178.738 253.075 174.69 253.075Z" fill="black"/>
<path d="M182.02 261.385C182.02 259.181 181.145 257.068 179.586 255.509C178.028 253.951 175.914 253.075 173.71 253.075H128.37C127.254 253.037 126.141 253.223 125.099 253.624C124.056 254.024 123.105 254.63 122.301 255.406C121.498 256.182 120.859 257.112 120.423 258.14C119.987 259.168 119.762 260.274 119.762 261.39C119.762 262.507 119.987 263.613 120.423 264.641C120.859 265.669 121.498 266.599 122.301 267.375C123.105 268.151 124.056 268.757 125.099 269.157C126.141 269.558 127.254 269.744 128.37 269.705H173.71C175.915 269.703 178.029 268.825 179.587 267.265C181.145 265.705 182.02 263.59 182.02 261.385Z" fill="#853030" stroke="#263238" stroke-miterlimit="10"/>
<path opacity="0.1" d="M182.02 261.645C182.02 260.554 181.805 259.474 181.388 258.465C180.97 257.457 180.358 256.541 179.586 255.769C178.815 254.998 177.898 254.386 176.89 253.968C175.882 253.55 174.801 253.335 173.71 253.335H128.37C127.254 253.297 126.141 253.483 125.099 253.884C124.056 254.284 123.105 254.89 122.301 255.666C121.498 256.442 120.859 257.372 120.423 258.4C119.987 259.428 119.762 260.534 119.762 261.65C119.762 262.767 119.987 263.873 120.423 264.901C120.859 265.929 121.498 266.859 122.301 267.635C123.105 268.411 124.056 269.017 125.099 269.417C126.141 269.818 127.254 270.004 128.37 269.965H173.71C174.802 269.965 175.884 269.75 176.893 269.332C177.901 268.914 178.818 268.301 179.59 267.528C180.361 266.755 180.973 265.838 181.39 264.829C181.807 263.819 182.021 262.738 182.02 261.645Z" fill="black"/>
<path d="M139.82 234.195H86.8202C85.5811 234.196 84.3544 233.948 83.2126 233.467C82.0707 232.986 81.0369 232.28 80.1719 231.393C79.307 230.506 78.6285 229.454 78.1765 228.301C77.7245 227.147 77.5082 225.914 77.5402 224.675L78.8502 173.005C78.9077 170.584 79.9111 168.28 81.6455 166.589C83.3799 164.897 85.7076 163.952 88.1302 163.955H131.86C134.079 163.952 136.226 164.744 137.91 166.188C139.594 167.632 140.705 169.632 141.04 171.825L148.99 223.535C149.189 224.855 149.1 226.203 148.731 227.485C148.361 228.768 147.719 229.955 146.849 230.967C145.978 231.979 144.9 232.791 143.687 233.348C142.474 233.906 141.155 234.194 139.82 234.195Z" fill="#853030" stroke="#263238" stroke-linecap="round" stroke-linejoin="round"/>
<path opacity="0.1" d="M139.82 234.195H86.8202C85.5811 234.196 84.3544 233.948 83.2126 233.467C82.0707 232.986 81.0369 232.28 80.1719 231.393C79.307 230.506 78.6285 229.454 78.1765 228.301C77.7245 227.147 77.5082 225.914 77.5402 224.675L78.8502 173.005C78.9077 170.584 79.9111 168.28 81.6455 166.589C83.3799 164.897 85.7076 163.952 88.1302 163.955H131.86C134.079 163.952 136.226 164.744 137.91 166.188C139.594 167.632 140.705 169.632 141.04 171.825L148.99 223.535C149.189 224.855 149.1 226.203 148.731 227.485C148.361 228.768 147.719 229.955 146.849 230.967C145.978 231.979 144.9 232.791 143.687 233.348C142.474 233.906 141.155 234.194 139.82 234.195Z" fill="black"/>
<path d="M122.51 267.055L99.27 282.355" stroke="#263238" stroke-linecap="round" stroke-linejoin="round"/>
<path d="M98.3902 280.005L94.3902 282.695C94.077 282.909 93.8149 283.189 93.6228 283.516C93.4306 283.843 93.3131 284.208 93.2787 284.586C93.2443 284.963 93.2938 285.344 93.4237 285.7C93.5537 286.056 93.7608 286.379 94.0302 286.645L94.3702 286.965C94.8196 287.407 95.4167 287.667 96.0464 287.695C96.6761 287.723 97.2938 287.516 97.7802 287.115L101.44 284.115C101.712 283.891 101.934 283.612 102.093 283.297C102.252 282.983 102.344 282.638 102.364 282.286C102.384 281.934 102.331 281.582 102.208 281.251C102.085 280.921 101.895 280.619 101.65 280.365C101.236 279.932 100.682 279.658 100.086 279.592C99.4895 279.526 98.8892 279.672 98.3902 280.005Z" fill="#263238" stroke="#263238" stroke-linecap="round" stroke-linejoin="round"/>
<path d="M126.14 343.765H149.07C150.131 343.765 151.148 344.187 151.899 344.937C152.649 345.687 153.07 346.705 153.07 347.765V348.295H126.14V343.765Z" fill="#263238" stroke="#263238" stroke-linecap="round" stroke-linejoin="round"/>
<path d="M144.5 207.565C149.023 207.565 152.69 205.479 152.69 202.905C152.69 200.332 149.023 198.245 144.5 198.245C139.977 198.245 136.31 200.332 136.31 202.905C136.31 205.479 139.977 207.565 144.5 207.565Z" fill="white" stroke="#263238" stroke-linecap="round" stroke-linejoin="round"/>
<path d="M167.29 241.125C167.29 241.125 180.5 241.785 183.48 248.725C184.094 251.102 184.429 253.542 184.48 255.995C184.48 259.625 196.7 329.665 197.03 330.995C197.36 332.325 204.63 342.555 205.62 344.865C206.61 347.175 207.62 349.165 207.62 349.165C207.62 349.165 210.62 350.485 210.27 351.475C209.92 352.465 203 352.795 200.03 352.795C197.06 352.795 193.75 345.535 191.77 344.865C189.79 344.195 187.47 341.865 187.47 340.575C187.47 339.285 188.47 329.675 188.47 329.675C187.203 321.836 184.987 314.18 181.87 306.875C177.45 296.805 171.95 282.095 171.29 275.165C170.63 268.235 170.63 261.615 170.63 261.615L162.29 260.285C162.29 260.285 161.29 243.105 167.29 241.125Z" fill="white" stroke="#263238" stroke-linecap="round" stroke-linejoin="round"/>
<path d="M194.14 348.145C194.14 348.145 196.78 337.395 203.58 341.565L206.43 346.385C206.43 346.385 200.07 346.385 198.09 352.535C197.123 352.182 196.257 351.597 195.569 350.832C194.88 350.067 194.39 349.144 194.14 348.145Z" fill="#263238" stroke="#263238" stroke-linecap="round" stroke-linejoin="round"/>
<path d="M139.95 221.065L139.63 221.115C136.63 208.895 132.58 196.405 132.58 196.405C132.58 196.405 112.71 201.655 101.25 198.095C101.25 198.095 95.4204 226.805 95.4204 234.305C95.4204 240.305 94.1804 246.405 98.7204 249.925C99.1595 250.572 99.7238 251.123 100.38 251.548C101.036 251.972 101.771 252.26 102.54 252.395C114.93 254.725 136.28 253.915 139.84 254.625C143.4 255.335 162.29 260.285 162.29 260.285C162.29 260.285 163.42 249.865 166.62 243.105C169.82 236.345 184.43 237.495 184.43 237.495L139.95 221.065Z" fill="#263238" stroke="#263238" stroke-linecap="round" stroke-linejoin="round"/>
<path d="M135.36 141.005C135.36 141.005 132.62 137.565 129.66 141.355C126.7 145.145 129.05 158.305 130.51 163.565C131.97 168.825 156.63 190.645 158.95 192.265C161.27 193.885 191.5 200.715 194.14 199.465C196.78 198.215 197.54 191.885 196.04 188.465C194.54 185.045 166.29 177.785 166.29 177.785L135.36 141.005Z" fill="white"/>
<mask id="mask5_382_7598" style="mask-type:luminance" maskUnits="userSpaceOnUse" x="128" y="139" width="69" height="61">
<path d="M135.36 141.005C135.36 141.005 132.62 137.565 129.66 141.355C126.7 145.145 129.05 158.305 130.51 163.565C131.97 168.825 156.63 190.645 158.95 192.265C161.27 193.885 191.5 200.715 194.14 199.465C196.78 198.215 197.54 191.885 196.04 188.465C194.54 185.045 166.29 177.785 166.29 177.785L135.36 141.005Z" fill="white"/>
</mask>
<g mask="url(#mask5_382_7598)">
<g style="mix-blend-mode:multiply" opacity="0.5">
<path d="M158.95 192.285C161.27 193.895 191.5 200.735 194.14 199.485C195.66 198.765 196.55 196.345 196.75 193.775C192.08 191.895 186.54 190.625 183.97 190.775C180.24 190.985 182.74 194.465 176.76 193.485C170.78 192.505 163.96 189.485 157.76 185.945C151.56 182.405 140.43 171.945 140.43 171.945L149.16 172.945L139.21 169.875L147.86 166.625L140.43 166.185C140.906 165.008 141.127 163.744 141.08 162.475C141.08 159.905 136.18 150.365 136.18 150.365L130.98 164.655C134.61 171.175 156.76 190.755 158.95 192.285Z" fill="#853030"/>
</g>
</g>
<path d="M135.36 141.005C135.36 141.005 132.62 137.565 129.66 141.355C126.7 145.145 129.05 158.305 130.51 163.565C131.97 168.825 156.63 190.645 158.95 192.265C161.27 193.885 191.5 200.715 194.14 199.465C196.78 198.215 197.54 191.885 196.04 188.465C194.54 185.045 166.29 177.785 166.29 177.785L135.36 141.005Z" stroke="#263238" stroke-linecap="round" stroke-linejoin="round"/>
<path d="M145.07 168.635L138.28 171.265L149.7 175.065" stroke="#263238" stroke-width="0.5" stroke-linecap="round" stroke-linejoin="round"/>
<path d="M194.21 188.435C193.337 188.614 192.539 189.053 191.92 189.694C191.3 190.334 190.889 191.147 190.74 192.025C190.15 195.155 193.23 197.825 193.23 197.825C193.23 197.825 199.72 200.055 201.66 194.825C203.6 189.595 197.35 188.235 194.21 188.435Z" fill="white"/>
<mask id="mask6_382_7598" style="mask-type:luminance" maskUnits="userSpaceOnUse" x="190" y="188" width="13" height="11">
<path d="M194.21 188.435C193.337 188.614 192.539 189.053 191.92 189.694C191.3 190.334 190.889 191.147 190.74 192.025C190.15 195.155 193.23 197.825 193.23 197.825C193.23 197.825 199.72 200.055 201.66 194.825C203.6 189.595 197.35 188.235 194.21 188.435Z" fill="white"/>
</mask>
<g mask="url(#mask6_382_7598)">
<g style="mix-blend-mode:multiply" opacity="0.5">
<path d="M193.23 197.825C193.23 197.825 198.77 199.715 201.14 195.905C197.885 194.093 194.405 192.718 190.79 191.815C190.769 191.884 190.752 191.954 190.74 192.025C190.15 195.155 193.23 197.825 193.23 197.825Z" fill="#853030"/>
</g>
</g>
<path d="M194.21 188.435C193.337 188.614 192.539 189.053 191.92 189.694C191.3 190.334 190.889 191.147 190.74 192.025C190.15 195.155 193.23 197.825 193.23 197.825C193.23 197.825 199.72 200.055 201.66 194.825C203.6 189.595 197.35 188.235 194.21 188.435Z" stroke="#263238" stroke-linecap="round" stroke-linejoin="round"/>
<path d="M213.38 195.665C215.193 195.956 216.863 196.826 218.14 198.145C220.03 200.275 218.49 201.145 217.28 200.835C216.07 200.525 212.09 194.645 213.38 195.665Z" fill="white" stroke="#263238" stroke-linecap="round" stroke-linejoin="round"/>
<path d="M212.12 195.275C213.876 195.815 215.41 196.91 216.49 198.395C218.07 200.755 216.42 201.395 215.27 200.935C214.12 200.475 210.98 194.085 212.12 195.275Z" fill="white" stroke="#263238" stroke-linecap="round" stroke-linejoin="round"/>
<path d="M200.8 190.615C200.8 190.615 197.8 191.715 197.47 193.615C197.416 194.209 197.485 194.807 197.675 195.371C197.864 195.936 198.169 196.455 198.57 196.895C198.57 196.895 201.57 199.295 202.71 199.545C203.85 199.795 206.41 201.255 206.71 199.865C207.01 198.475 203.97 197.245 203.97 197.245C203.97 197.245 209.78 197.595 209.97 198.765C210.16 199.935 212.26 201.145 214.12 201.175C215.98 201.205 213.73 197.445 213.28 196.505C212.83 195.565 204.52 190.685 200.8 190.615Z" fill="white" stroke="#263238" stroke-linecap="round" stroke-linejoin="round"/>
<path d="M105.57 131.675C105.57 131.675 87.2903 142.305 85.8603 143.005C84.4303 143.705 83.0103 154.705 83.0103 155.745C83.0103 156.785 101.29 198.095 101.29 198.095C101.29 198.095 105.79 201.905 118.96 201.905C132.13 201.905 133.15 199.905 133.15 199.905L134.2 182.475C134.2 182.475 138.7 170.695 139.05 168.615C139.4 166.535 135.36 141.005 135.36 141.005L116.66 128.535C116.66 128.535 109.04 124.055 105.57 131.675Z" fill="white"/>
<mask id="mask7_382_7598" style="mask-type:luminance" maskUnits="userSpaceOnUse" x="83" y="127" width="57" height="75">
<path d="M105.57 131.675C105.57 131.675 87.2903 142.305 85.8603 143.005C84.4303 143.705 83.0103 154.705 83.0103 155.745C83.0103 156.785 101.29 198.095 101.29 198.095C101.29 198.095 105.79 201.905 118.96 201.905C132.13 201.905 133.15 199.905 133.15 199.905L134.2 182.475C134.2 182.475 138.7 170.695 139.05 168.615C139.4 166.535 135.36 141.005 135.36 141.005L116.66 128.535C116.66 128.535 109.04 124.055 105.57 131.675Z" fill="white"/>
</mask>
<g mask="url(#mask7_382_7598)">
<g style="mix-blend-mode:multiply" opacity="0.5">
<path d="M87.7203 150.565C89.1503 148.275 102.31 139.695 102.31 139.695L107.17 136.835L113.4 127.385C110.9 126.925 107.56 127.305 105.57 131.675C105.57 131.675 87.2503 142.305 85.8603 142.995C84.4703 143.685 83.0103 154.695 83.0103 155.735C83.0103 155.965 83.8703 158.085 85.2103 161.275C85.7303 156.545 86.7203 152.165 87.7203 150.565Z" fill="#853030"/>
</g>
</g>
<path d="M105.57 131.675C105.57 131.675 87.2903 142.305 85.8603 143.005C84.4303 143.705 83.0103 154.705 83.0103 155.745C83.0103 156.785 101.29 198.095 101.29 198.095C101.29 198.095 105.79 201.905 118.96 201.905C132.13 201.905 133.15 199.905 133.15 199.905L134.2 182.475C134.2 182.475 138.7 170.695 139.05 168.615C139.4 166.535 135.36 141.005 135.36 141.005L116.66 128.535C116.66 128.535 109.04 124.055 105.57 131.675Z" stroke="#263238" stroke-linecap="round" stroke-linejoin="round"/>
<path d="M111.7 148.165L117.03 153.915L115.92 178.365L123.72 180.425L124.54 169.745L127.41 180.835L133.16 175.085L120.73 153.505L122.37 146.935L115.39 139.135L110.88 149.815" fill="#263238"/>
<path d="M111.7 148.165L117.03 153.915L115.92 178.365L123.72 180.425L124.54 169.745L127.41 180.835L133.16 175.085L120.73 153.505L122.37 146.935L115.39 139.135L110.88 149.815" stroke="#263238" stroke-linecap="round" stroke-linejoin="round"/>
<path d="M102 131.735C102 131.735 103.14 139.345 104.66 142.735C106.18 146.125 109.61 151.875 109.61 151.875L116.84 144.635L124.08 149.635C124.08 149.635 123.32 137.075 120.65 131.365C117.98 125.655 105.04 119.935 102 131.735Z" fill="white" stroke="#263238" stroke-linecap="round" stroke-linejoin="round"/>
<g style="mix-blend-mode:multiply" opacity="0.5">
<path d="M107.17 136.835L114.4 125.835C113.08 125.258 111.668 124.919 110.23 124.835C108.99 125.085 107.59 125.395 106.11 125.725C104.3 126.725 102.8 128.605 102 131.725C102 131.725 102.57 135.565 103.45 139.015L107.17 136.835Z" fill="#853030"/>
</g>
<path d="M119.89 129.445C118.911 131.601 118.393 133.938 118.37 136.305C118.37 140.105 119.13 144.305 119.13 146.205V151.915C119.13 151.915 114.56 146.205 111.13 142.015C107.7 137.825 105.04 134.015 105.42 130.595C105.8 127.175 109.23 113.835 109.23 113.835C111.042 113.819 112.822 114.31 114.37 115.251C115.918 116.193 117.172 117.549 117.99 119.165C121.03 124.875 119.89 129.445 119.89 129.445Z" fill="white" stroke="#263238" stroke-linecap="round" stroke-linejoin="round"/>
<g style="mix-blend-mode:multiply" opacity="0.5">
<path d="M108.03 122.825L106.89 123.375C106.19 126.375 105.57 129.245 105.42 130.595C105.05 133.895 107.52 137.595 110.77 141.595L111.18 133.725L119.89 129.475L112.89 122.565L108.03 122.825Z" fill="#853030"/>
</g>
<path d="M127.29 125.355C127.29 125.355 124.77 130.025 127.49 130.215C130.21 130.405 129.62 128.075 130.01 127.305C130.4 126.535 132.15 128.305 131.18 131.965C130.21 135.625 125.35 138.185 122.43 135.265C119.51 132.345 120.3 129.265 121.27 126.915C122.24 124.565 126.15 123.415 127.29 125.355Z" fill="#263238" stroke="#263238" stroke-linecap="round" stroke-linejoin="round"/>
<path d="M121.83 84.0754C120.98 83.9554 120.09 83.8654 119.17 83.8154C115.82 83.6454 112.17 83.8654 109.56 85.9554C104.14 90.2954 105.05 99.0154 105.44 105.085C105.88 111.975 105.79 122.025 110.96 127.015C119.69 135.435 133.34 126.425 133.34 116.445C133.34 112.225 133.5 105.795 133.78 104.355C134.145 102.577 134.395 100.776 134.53 98.9654C135.13 89.7754 129.92 85.2254 121.83 84.0754Z" fill="white" stroke="#263238" stroke-linecap="round" stroke-linejoin="round"/>
<g style="mix-blend-mode:multiply" opacity="0.5">
<path d="M125.05 128.815C122.608 128.781 120.17 128.594 117.75 128.255C114.04 127.685 108.89 121.675 111.46 113.385C114.03 105.095 114.04 100.795 114.04 100.795L105.29 95.3254C105.09 98.578 105.143 101.841 105.45 105.085C105.89 111.975 105.8 122.025 110.97 127.015C115.21 131.115 120.61 131.075 125.05 128.815Z" fill="#853030"/>
</g>
<path d="M120.09 110.675C120.637 110.675 121.08 109.914 121.08 108.975C121.08 108.037 120.637 107.275 120.09 107.275C119.543 107.275 119.1 108.037 119.1 108.975C119.1 109.914 119.543 110.675 120.09 110.675Z" fill="#263238"/>
<path d="M129.86 109.395C129.8 110.335 129.3 111.065 128.76 111.025C128.22 110.985 127.82 110.205 127.88 109.265C127.94 108.325 128.43 107.595 128.98 107.635C129.53 107.675 129.92 108.455 129.86 109.395Z" fill="#263238"/>
<path d="M117.02 104.905C117.02 104.905 119.02 100.685 122.23 102.675Z" fill="white"/>
<path d="M117.02 104.905C117.02 104.905 119.02 100.685 122.23 102.675" stroke="#263238" stroke-linecap="round" stroke-linejoin="round"/>
<path d="M127.44 103.415C127.44 103.415 129.81 100.695 131.16 105.155Z" fill="white"/>
<path d="M127.44 103.415C127.44 103.415 129.81 100.695 131.16 105.155" stroke="#263238" stroke-linecap="round" stroke-linejoin="round"/>
<path d="M125.9 112.355C125.9 112.525 125.9 112.695 125.9 112.845C126.15 114.585 127.39 115.845 126.9 116.565C126.41 117.285 123.9 117.565 123.9 117.565" fill="white"/>
<path d="M125.9 112.355C125.9 112.525 125.9 112.695 125.9 112.845C126.15 114.585 127.39 115.845 126.9 116.565C126.41 117.285 123.9 117.565 123.9 117.565" stroke="#263238" stroke-linecap="round" stroke-linejoin="round"/>
<path d="M122.97 121.535C122.97 121.535 118.6 122.885 116.97 119.355Z" fill="white"/>
<path d="M122.97 121.535C122.97 121.535 118.6 122.885 116.97 119.355" stroke="#263238" stroke-linecap="round" stroke-linejoin="round"/>
<path d="M119.24 113.135C122.079 113.135 124.38 110.834 124.38 107.995C124.38 105.157 122.079 102.855 119.24 102.855C116.401 102.855 114.1 105.157 114.1 107.995C114.1 110.834 116.401 113.135 119.24 113.135Z" stroke="#263238" stroke-width="0.5" stroke-linecap="round" stroke-linejoin="round"/>
<path d="M130.87 113.135C133.416 113.135 135.48 110.834 135.48 107.995C135.48 105.157 133.416 102.855 130.87 102.855C128.324 102.855 126.26 105.157 126.26 107.995C126.26 110.834 128.324 113.135 130.87 113.135Z" stroke="#263238" stroke-width="0.5" stroke-linecap="round" stroke-linejoin="round"/>
<path d="M114.1 107.995L106.76 108.305" stroke="#263238" stroke-width="0.5" stroke-linecap="round" stroke-linejoin="round"/>
<path d="M135.48 107.995H133.6" stroke="#263238" stroke-width="0.5" stroke-linecap="round" stroke-linejoin="round"/>
<path d="M124.37 106.425H126.5" stroke="#263238" stroke-width="0.5" stroke-linecap="round" stroke-linejoin="round"/>
<path d="M130.9 78.0054C127.063 77.3353 123.184 76.9344 119.29 76.8054C119.29 76.8054 112.48 73.5954 103.29 77.2054C90.1404 82.3454 90.4304 99.9054 93.6904 111.095C94.6904 114.475 97.0404 119.605 94.8804 122.995C93.5204 125.135 89.6304 123.995 90.2204 121.055C90.8104 118.115 91.7704 119.115 92.5504 118.725C93.3304 118.335 92.1604 117.945 90.4104 117.365C88.6604 116.785 87.1304 118.365 86.9104 122.215C86.3304 132.715 101.8 139.665 107.7 130.485C110.1 126.485 107.97 119.535 106.93 114.485C106.6 112.737 106.376 110.971 106.26 109.195C108.127 109.017 109.859 108.142 111.11 106.745C112.037 105.475 112.828 104.111 113.47 102.675C114.17 102.675 114.9 102.725 115.7 102.805C123.7 103.605 126.12 89.9854 126.12 89.9854C126.12 89.9854 130.12 97.5954 131.32 100.405L132.52 103.205C132.52 103.205 135.73 103.605 138.93 96.7954C142.13 89.9854 138.51 79.2354 130.9 78.0054Z" fill="#263238" stroke="#263238" stroke-linecap="round" stroke-linejoin="round"/>
<path d="M125.66 86.7855C125.66 86.7855 135.5 90.1655 135.8 96.0055C136.1 101.845 134.57 102.145 134.57 102.145" stroke="white" stroke-width="0.5" stroke-miterlimit="10" stroke-linecap="round"/>
<path d="M124.44 84.6355C124.44 84.6355 133.65 82.4855 136.73 88.6355" stroke="white" stroke-width="0.5" stroke-miterlimit="10" stroke-linecap="round"/>
<path d="M113.07 78.4855C113.07 78.4855 122.28 83.0955 123.82 87.4055C125.36 91.7155 117.37 99.9955 112.14 101.535C106.91 103.075 102.93 101.225 99.2402 103.995C95.5502 106.765 97.0902 114.435 97.0902 114.435" stroke="white" stroke-width="0.5" stroke-miterlimit="10" stroke-linecap="round"/>
<path d="M94.2904 105.835C94.2904 105.835 91.8304 99.9954 97.0604 96.9254C102.29 93.8554 106.89 96.9254 112.73 93.2354C118.57 89.5454 119.49 84.9454 119.49 84.9454" stroke="white" stroke-width="0.5" stroke-miterlimit="10" stroke-linecap="round"/>
<path d="M107.82 111.135C107.82 111.135 104.59 103.285 101.35 106.055C98.11 108.825 103.66 116.215 107.35 115.295" fill="white"/>
<path d="M107.82 111.135C107.82 111.135 104.59 103.285 101.35 106.055C98.11 108.825 103.66 116.215 107.35 115.295" stroke="#263238" stroke-linecap="round" stroke-linejoin="round"/>
<g opacity="0.37">
<path d="M107.82 111.135C107.82 111.135 104.59 103.285 101.35 106.055C98.11 108.825 103.66 116.215 107.35 115.295" fill="#853030"/>
<path d="M107.82 111.135C107.82 111.135 104.59 103.285 101.35 106.055C98.11 108.825 103.66 116.215 107.35 115.295" stroke="#263238" stroke-linecap="round" stroke-linejoin="round"/>
</g>
<path d="M88.0901 143.795C88.0901 143.795 86.5201 142.615 83.0301 145.245C79.5401 147.875 76.2901 159.835 78.4701 164.905C80.6501 169.975 86.4701 196.335 89.1801 197.775C91.8901 199.215 121.03 199.095 124.47 198.285C127.91 197.475 130.31 192.975 129.73 189.085C129.15 185.195 125.31 184.185 124.18 184.155C123.05 184.125 99.8401 182.805 99.8401 182.805L92.6301 152.345" fill="white"/>
<mask id="mask8_382_7598" style="mask-type:luminance" maskUnits="userSpaceOnUse" x="77" y="143" width="53" height="56">
<path d="M88.0901 143.795C88.0901 143.795 86.5201 142.615 83.0301 145.245C79.5401 147.875 76.2901 159.835 78.4701 164.905C80.6501 169.975 86.4701 196.335 89.1801 197.775C91.8901 199.215 121.03 199.095 124.47 198.285C127.91 197.475 130.31 192.975 129.73 189.085C129.15 185.195 125.31 184.185 124.18 184.155C123.05 184.125 99.8401 182.805 99.8401 182.805L92.6301 152.345" fill="white"/>
</mask>
<g mask="url(#mask8_382_7598)">
<g style="mix-blend-mode:multiply" opacity="0.5">
<path d="M125.39 191.755C123.73 189.705 97.3101 193.275 94.4901 191.755C91.6701 190.235 90.3101 187.345 92.3701 185.395C94.4301 183.445 88.4301 183.005 88.4801 181.285C88.5301 179.565 91.9701 179.095 91.7501 176.795C91.5301 174.495 84.1001 174.015 84.2801 167.435C84.4601 160.855 86.1101 152.895 87.6001 150.645C88.4252 149.697 89.3736 148.863 90.4201 148.165L88.0901 143.785C88.0901 143.785 86.5201 142.605 83.0301 145.235C79.5401 147.865 76.2901 159.835 78.4701 164.905C80.6501 169.975 86.4701 196.335 89.1801 197.775C91.8901 199.215 121.03 199.095 124.47 198.285C125.582 197.93 126.593 197.313 127.417 196.486C128.242 195.66 128.857 194.648 129.21 193.535C127.36 193.005 125.88 192.355 125.39 191.755Z" fill="#853030"/>
</g>
</g>
<path d="M88.0901 143.795C88.0901 143.795 86.5201 142.615 83.0301 145.245C79.5401 147.875 76.2901 159.835 78.4701 164.905C80.6501 169.975 86.4701 196.335 89.1801 197.775C91.8901 199.215 121.03 199.095 124.47 198.285C127.91 197.475 130.31 192.975 129.73 189.085C129.15 185.195 125.31 184.185 124.18 184.155C123.05 184.125 99.8401 182.805 99.8401 182.805L92.6301 152.345" stroke="#263238" stroke-linecap="round" stroke-linejoin="round"/>
<path d="M91.0103 188.425C92.7303 183.365 99.8303 183.265 99.8303 183.265C96.9985 182.524 94.0377 182.418 91.1603 182.955" stroke="#263238" stroke-width="0.5" stroke-linecap="round" stroke-linejoin="round"/>
<path d="M128.47 185.415C127.419 185.865 126.523 186.612 125.89 187.564C125.258 188.516 124.917 189.632 124.91 190.775C124.79 194.875 127.51 195.635 128.18 196.105C128.85 196.575 132.89 198.745 134.52 197.415C136.15 196.085 138.07 192.505 136.52 189.505C134.97 186.505 130.06 185.455 128.47 185.415Z" fill="white"/>
<mask id="mask9_382_7598" style="mask-type:luminance" maskUnits="userSpaceOnUse" x="124" y="185" width="14" height="13">
<path d="M128.47 185.415C127.419 185.865 126.523 186.612 125.89 187.564C125.258 188.516 124.917 189.632 124.91 190.775C124.79 194.875 127.51 195.635 128.18 196.105C128.85 196.575 132.89 198.745 134.52 197.415C136.15 196.085 138.07 192.505 136.52 189.505C134.97 186.505 130.06 185.455 128.47 185.415Z" fill="white"/>
</mask>
<g mask="url(#mask9_382_7598)">
<g style="mix-blend-mode:multiply" opacity="0.5">
<path d="M134.52 197.415C134.935 197.063 135.305 196.66 135.62 196.215L132.22 194.405C129.1 193.545 126.13 192.665 125.39 191.755C125.261 191.62 125.099 191.52 124.92 191.465C125.11 194.965 127.54 195.665 128.18 196.105C128.82 196.545 132.89 198.745 134.52 197.415Z" fill="#853030"/>
</g>
</g>
<path d="M128.47 185.415C127.419 185.865 126.523 186.612 125.89 187.564C125.258 188.516 124.917 189.632 124.91 190.775C124.79 194.875 127.51 195.635 128.18 196.105C128.85 196.575 132.89 198.745 134.52 197.415C136.15 196.085 138.07 192.505 136.52 189.505C134.97 186.505 130.06 185.455 128.47 185.415Z" stroke="#263238" stroke-linecap="round" stroke-linejoin="round"/>
<path d="M134.1 189.085C134.1 189.085 131.62 190.035 131.28 191.905C130.94 193.775 131.06 194.785 131.49 194.905C131.92 195.025 133.35 195.675 133.35 195.675L137.76 197.965C137.76 197.965 141.26 201.965 142.41 202.285C143.56 202.605 142.57 201.855 142.41 200.985C141.91 199.739 141.262 198.558 140.48 197.465L145.7 202.085C145.7 202.085 147.42 202.705 147.02 201.395C146.62 200.085 143.95 197.395 143.95 197.395L148.88 201.865C148.88 201.865 149.88 202.325 149.88 201.745C149.936 201.455 149.916 201.155 149.822 200.874C149.727 200.594 149.561 200.343 149.34 200.145C148.78 199.695 145.42 195.845 145.42 195.845L150.1 198.715C150.1 198.715 151.1 200.045 151.8 200.065C152.5 200.085 152.1 199.635 151.57 198.065C151.04 196.495 147.48 194.195 146.21 193.295C144.94 192.395 138 189.195 134.1 189.085Z" fill="white" stroke="#263238" stroke-linecap="round" stroke-linejoin="round"/>
<path d="M357.84 187.885H318.78L325.81 165.085H364.87L357.84 187.885Z" fill="#263238" stroke="#263238" stroke-linecap="round" stroke-linejoin="round"/>
<path d="M354.77 190.035H315.72L322.75 167.225H361.8L354.77 190.035Z" fill="white" stroke="#263238" stroke-linecap="round" stroke-linejoin="round"/>
<path d="M298.65 181.005H363.01C364.601 181.005 366.127 181.638 367.253 182.763C368.378 183.888 369.01 185.414 369.01 187.005V203.785H298.65V181.005Z" fill="#263238" stroke="#263238" stroke-linecap="round" stroke-linejoin="round"/>
<path d="M357.49 181.005H287.1V203.815H357.49V181.005Z" fill="white" stroke="#263238" stroke-linecap="round" stroke-linejoin="round"/>
<path d="M341.65 197.695H285.42V200.705H341.65V197.695Z" fill="white" stroke="#263238" stroke-linecap="round" stroke-linejoin="round"/>
<path d="M341.65 194.685H297.42V197.695H341.65V194.685Z" fill="#263238" stroke="#263238" stroke-linecap="round" stroke-linejoin="round"/>
<path d="M285.65 201.595H241.28V203.665H285.65V201.595Z" fill="white" stroke="#263238" stroke-linecap="round" stroke-linejoin="round"/>
<path d="M319.77 128.325H224.13V190.005H319.77V128.325Z" fill="white" stroke="#263238" stroke-linecap="round" stroke-linejoin="round"/>
<path d="M319.77 128.325H229.35V190.005H319.77V128.325Z" fill="#263238" stroke="#263238" stroke-linecap="round" stroke-linejoin="round"/>
<path d="M286.68 156.985H265.75V204.605H286.68V156.985Z" fill="white" stroke="#263238" stroke-linecap="round" stroke-linejoin="round"/>
<path d="M288.61 156.985H267.68V204.605H288.61V156.985Z" fill="#263238" stroke="#263238" stroke-linecap="round" stroke-linejoin="round"/>
<path d="M266.29 157.545H289.1V190.155" stroke="white" stroke-linejoin="round"/>
<path d="M223.47 200.485H159.4V203.835H223.47V200.485Z" fill="white" stroke="#263238" stroke-linecap="round" stroke-linejoin="round"/>
<path d="M240.03 200.485H175.96V203.835H240.03V200.485Z" fill="white" stroke="#263238" stroke-linecap="round" stroke-linejoin="round"/>
<path d="M156.93 209.355H58.76L54.1 352.815C54.0743 353.213 54.128 353.611 54.2579 353.988C54.3878 354.364 54.5913 354.711 54.8566 355.008C55.1218 355.305 55.4436 355.546 55.803 355.717C56.1624 355.888 56.5523 355.986 56.95 356.005C57.6855 355.984 58.3863 355.688 58.9139 355.175C59.4416 354.662 59.7578 353.97 59.8 353.235L69.17 236.005C69.2889 233.915 70.1863 231.944 71.6854 230.482C73.1846 229.02 75.1769 228.172 77.27 228.105H138.42C140.512 228.172 142.503 229.02 144.001 230.483C145.498 231.945 146.394 233.916 146.51 236.005L155.89 353.215C155.932 353.948 156.247 354.639 156.772 355.152C157.298 355.664 157.996 355.962 158.73 355.985C159.128 355.968 159.518 355.871 159.878 355.701C160.238 355.531 160.56 355.291 160.826 354.995C161.092 354.699 161.297 354.353 161.428 353.977C161.559 353.601 161.614 353.203 161.59 352.805L156.93 209.355Z" fill="#853030" stroke="#263238" stroke-linecap="round" stroke-linejoin="round"/>
<path d="M157.15 215.955L156.93 209.355H124.82H90.87H58.76L58.54 215.955H157.15Z" fill="#263238" stroke="#263238" stroke-linecap="round" stroke-linejoin="round"/>
<path d="M380.49 209.355H282.29L277.64 352.815C277.616 353.212 277.67 353.609 277.801 353.985C277.931 354.36 278.135 354.705 278.4 355.001C278.665 355.297 278.987 355.537 279.345 355.708C279.704 355.879 280.093 355.976 280.49 355.995C281.224 355.972 281.922 355.674 282.448 355.162C282.973 354.649 283.288 353.958 283.33 353.225L292.73 236.005C292.849 233.915 293.746 231.944 295.245 230.482C296.745 229.02 298.737 228.172 300.83 228.105H361.98C364.072 228.172 366.063 229.02 367.561 230.483C369.058 231.945 369.953 233.916 370.07 236.005L379.45 353.215C379.487 353.952 379.8 354.648 380.326 355.164C380.852 355.681 381.553 355.981 382.29 356.005C382.687 355.986 383.076 355.889 383.434 355.718C383.793 355.547 384.114 355.307 384.38 355.011C384.645 354.715 384.848 354.37 384.979 353.995C385.109 353.619 385.164 353.222 385.14 352.825L380.49 209.355Z" fill="#853030" stroke="#263238" stroke-linecap="round" stroke-linejoin="round"/>
<path d="M381.14 215.955L380.93 209.355H348.82H314.86H282.75L282.54 215.955H381.14Z" fill="#263238" stroke="#263238" stroke-linecap="round" stroke-linejoin="round"/>
<path d="M386.96 203.815H50.7998V211.375H386.96V203.815Z" fill="white" stroke="#263238" stroke-linecap="round" stroke-linejoin="round"/>
<path d="M386.97 203.815H146.03V211.375H386.97V203.815Z" fill="white" stroke="#263238" stroke-linecap="round" stroke-linejoin="round"/>
</svg>
